<?xml version="1.0" encoding="UTF-8"?>
<!DOCTYPE svg PUBLIC "-//W3C//DTD SVG 1.1//EN" "http://www.w3.org/Graphics/SVG/1.1/DTD/svg11.dtd">
<svg xmlns="http://www.w3.org/2000/svg" version="1.1" width="512px" height="512px" style="shape-rendering:geometricPrecision; text-rendering:geometricPrecision; image-rendering:optimizeQuality; fill-rule:evenodd; clip-rule:evenodd" xmlns:xlink="http://www.w3.org/1999/xlink">
<!-- <g><path style="opacity:1" fill="#7f7f7e" d="M -0.5,-0.5 C 170.167,-0.5 340.833,-0.5 511.5,-0.5C 511.5,170.167 511.5,340.833 511.5,511.5C 340.833,511.5 170.167,511.5 -0.5,511.5C -0.5,340.833 -0.5,170.167 -0.5,-0.5 Z"/></g> -->
<g><path style="opacity:1" fill="#000000" d="M 346.5,77.5 C 340.767,76.8951 335.434,78.0617 330.5,81C 324.441,90.2815 317.774,99.1148 310.5,107.5C 306.058,111.054 301.058,113.554 295.5,115C 281.304,114.956 267.138,114.123 253,112.5C 181.799,118.369 134.466,155.035 111,222.5C 107.205,227.815 102.038,230.648 95.5,231C 81.1667,231.333 66.8333,231.667 52.5,232C 51.0993,232.41 49.766,232.91 48.5,233.5C 67.6439,157.389 113.311,103.889 185.5,73C 239.973,52.6117 293.64,54.1117 346.5,77.5 Z"/></g>
<g><path style="opacity:1" fill="#fefffe" d="M 48.5,233.5 C 49.766,232.91 51.0993,232.41 52.5,232C 66.8333,231.667 81.1667,231.333 95.5,231C 102.038,230.648 107.205,227.815 111,222.5C 134.466,155.035 181.799,118.369 253,112.5C 267.138,114.123 281.304,114.956 295.5,115C 301.058,113.554 306.058,111.054 310.5,107.5C 317.774,99.1148 324.441,90.2815 330.5,81C 335.434,78.0617 340.767,76.8951 346.5,77.5C 358.492,78.3676 363.659,85.0343 362,97.5C 351.967,119.712 337.467,138.546 318.5,154C 310.632,159.482 302.799,159.982 295,155.5C 241.941,141.94 199.275,158.273 167,204.5C 163.468,210.899 160.468,217.566 158,224.5C 155.429,234.69 153.429,244.69 152,254.5C 150.558,258.275 148.058,261.108 144.5,263C 114.561,264.643 84.5613,264.976 54.5,264C 49.2581,262.426 45.5915,259.093 43.5,254C 43.5194,251.031 43.6861,247.865 44,244.5C 45.7676,240.914 47.2676,237.247 48.5,233.5 Z"/></g>
<g><path style="opacity:1" fill="#000000" d="M 386.5,102.5 C 398.993,104.458 404.493,111.791 403,124.5C 392.37,147.144 377.203,166.311 357.5,182C 352.214,186.318 346.214,188.318 339.5,188C 330.71,184.927 327.21,178.76 329,169.5C 336.598,159.899 344.931,150.899 354,142.5C 362.33,131.848 369.663,120.514 376,108.5C 378.793,105.027 382.293,103.027 386.5,102.5 Z"/></g>
<g><path style="opacity:1" fill="#fe7f00" d="M 420.5,138.5 C 422.049,138.736 423.549,138.736 425,138.5C 426.137,139.364 427.47,140.364 429,141.5C 429.333,141.167 429.667,140.833 430,140.5C 433.443,143.888 436.277,147.722 438.5,152C 438.5,154.667 438.5,157.333 438.5,160C 425.159,184.652 406.993,204.152 384,218.5C 379.547,222.066 374.88,225.4 370,228.5C 367.812,227.553 365.478,227.553 363,228.5C 361.676,227.12 360.343,226.786 359,227.5C 356.144,224.353 353.644,221.52 351.5,219C 351.519,216.031 351.686,212.865 352,209.5C 354.287,205.878 356.953,202.545 360,199.5C 360.333,199.833 360.667,200.167 361,200.5C 375.221,190.283 387.887,178.283 399,164.5C 400.544,160.313 403.044,156.813 406.5,154C 406.5,153 406.5,152 406.5,151C 409.42,146.677 412.92,142.844 417,139.5C 418.313,140.287 419.48,139.954 420.5,138.5 Z"/></g>
<g><path style="opacity:1" fill="#fe7e00" d="M 444.5,184.5 C 447.303,184.592 450.303,184.758 453.5,185C 455.061,185.318 456.228,186.151 457,187.5C 457.333,187.167 457.667,186.833 458,186.5C 460.112,190.278 462.612,193.778 465.5,197C 465.204,201.887 466.537,206.887 469.5,212C 468.786,213.343 469.12,214.676 470.5,216C 469.786,217.343 470.12,218.676 471.5,220C 471.5,221.667 471.5,223.333 471.5,225C 473.125,225.853 473.458,226.853 472.5,228C 473.804,232.784 475.471,237.784 477.5,243C 477.542,247.299 477.375,251.799 477,256.5C 473.488,263.684 467.655,267.517 459.5,268C 432.833,268.667 406.167,268.667 379.5,268C 378.24,266.887 377.073,266.72 376,267.5C 375.683,265.699 375.016,265.366 374,266.5C 366.269,259.394 365.936,251.727 373,243.5C 398.655,232.187 420.489,214.187 438.5,189.5C 440.571,187.815 442.571,186.148 444.5,184.5 Z"/></g>
<g><path style="opacity:1" fill="#fefffe" d="M 424.5,419.5 C 408.131,419.869 391.798,419.369 375.5,418C 359.133,414.076 347.3,404.576 340,389.5C 314.422,337.014 289.422,284.347 265,231.5C 263.186,230.24 261.353,230.24 259.5,231.5C 225.011,304.143 191.345,377.143 158.5,450.5C 146.352,449.951 135.352,446.117 125.5,439C 124.177,438.184 123.511,437.017 123.5,435.5C 131.487,434.084 139.154,431.584 146.5,428C 150.752,424.419 154.252,420.252 157,415.5C 190.651,342.868 224.817,270.534 259.5,198.5C 286.407,197.384 305.907,209.051 318,233.5C 335.667,270.167 353.333,306.833 371,343.5C 378.203,357.042 389.203,365.708 404,369.5C 404.333,369.167 404.667,368.833 405,368.5C 418.425,369.324 431.925,369.824 445.5,370C 451.16,371.164 454.16,374.664 454.5,380.5C 453.964,382.942 453.131,385.275 452,387.5C 443.989,399.21 434.822,409.877 424.5,419.5 Z"/></g>
<g><path style="opacity:1" fill="#000000" d="M 259.5,198.5 C 224.817,270.534 190.651,342.868 157,415.5C 154.252,420.252 150.752,424.419 146.5,428C 139.154,431.584 131.487,434.084 123.5,435.5C 121.772,433.123 119.439,431.456 116.5,430.5C 131.415,399 146.082,367.333 160.5,335.5C 173.951,306.591 187.451,277.591 201,248.5C 206.803,234.377 214.97,221.877 225.5,211C 235.459,203.179 246.792,199.013 259.5,198.5 Z"/></g>
<g><path style="opacity:1" fill="#000000" d="M 424.5,419.5 C 412.291,433.533 397.291,443.366 379.5,449C 352.653,453.823 332.153,444.657 318,421.5C 302,388.167 286,354.833 270,321.5C 266.819,315.748 262.819,315.081 258,319.5C 240.707,357.418 222.374,394.751 203,431.5C 191.314,445.12 176.481,451.453 158.5,450.5C 191.345,377.143 225.011,304.143 259.5,231.5C 261.353,230.24 263.186,230.24 265,231.5C 289.422,284.347 314.422,337.014 340,389.5C 347.3,404.576 359.133,414.076 375.5,418C 391.798,419.369 408.131,419.869 424.5,419.5 Z"/></g>
<g><path style="opacity:1" fill="#fe7e03" d="M 60.5,278.5 C 87.8354,278.333 115.169,278.5 142.5,279C 147.74,281.632 151.74,284.965 154.5,289C 153.786,290.343 154.12,291.676 155.5,293C 154.167,295 154.167,297 155.5,299C 153.578,300.46 152.911,302.127 153.5,304C 150.308,306.922 146.641,309.256 142.5,311C 113.833,311.667 85.1667,311.667 56.5,311C 51.3692,309.811 48.0359,307.145 46.5,303C 45.636,301.863 44.636,300.53 43.5,299C 44.8333,297 44.8333,295 43.5,293C 44.219,289.558 45.8857,286.225 48.5,283C 52.1868,280.375 56.1868,278.875 60.5,278.5 Z"/></g>
<g><path style="opacity:1" fill="#fe7e02" d="M 160.5,335.5 C 146.082,367.333 131.415,399 116.5,430.5C 112.26,427.701 107.927,424.868 103.5,422C 90.8912,410.058 79.7245,396.891 70,382.5C 63.4346,369.373 57.4346,356.04 52,342.5C 50.2639,334.809 52.7639,328.976 59.5,325C 89.5,324.333 119.5,324.333 149.5,325C 155.681,326.016 159.347,329.516 160.5,335.5 Z"/></g>
</svg>
