<?xml version="1.0" encoding="UTF-8"?>
<!DOCTYPE svg PUBLIC "-//W3C//DTD SVG 1.1//EN" "http://www.w3.org/Graphics/SVG/1.1/DTD/svg11.dtd">
<svg xmlns="http://www.w3.org/2000/svg" version="1.1" width="661px" height="661px" style="shape-rendering:geometricPrecision; text-rendering:geometricPrecision; image-rendering:optimizeQuality; fill-rule:evenodd; clip-rule:evenodd" xmlns:xlink="http://www.w3.org/1999/xlink">
<g><path style="opacity:1" fill="#fefefe" d="M -0.5,-0.5 C 219.833,-0.5 440.167,-0.5 660.5,-0.5C 660.5,219.833 660.5,440.167 660.5,660.5C 440.167,660.5 219.833,660.5 -0.5,660.5C -0.5,440.167 -0.5,219.833 -0.5,-0.5 Z"/></g>
<g><path style="opacity:1" fill="#3e3e3e" d="M 420.5,97.5 C 414.767,96.8951 409.434,98.0617 404.5,101C 398.441,110.281 391.774,119.115 384.5,127.5C 380.058,131.054 375.058,133.554 369.5,135C 355.304,134.956 341.138,134.123 327,132.5C 255.799,138.369 208.466,175.035 185,242.5C 181.205,247.815 176.038,250.648 169.5,251C 155.167,251.333 140.833,251.667 126.5,252C 125.099,252.41 123.766,252.91 122.5,253.5C 141.644,177.389 187.311,123.889 259.5,93C 313.973,72.6117 367.64,74.1117 420.5,97.5 Z"/></g>
<g><path style="opacity:1" fill="#010101" d="M 420.5,97.5 C 432.614,98.7136 437.781,105.38 436,117.5C 425.504,142.324 409.004,162.158 386.5,177C 384.351,177.579 382.185,178.079 380,178.5C 322.08,159.696 275.747,175.029 241,224.5C 232.598,240.098 227.598,256.765 226,274.5C 224.558,278.275 222.058,281.108 218.5,283C 188.548,284.635 158.548,284.968 128.5,284C 119.935,280.378 116.435,273.878 118,264.5C 119.768,260.914 121.268,257.247 122.5,253.5C 123.766,252.91 125.099,252.41 126.5,252C 140.833,251.667 155.167,251.333 169.5,251C 176.038,250.648 181.205,247.815 185,242.5C 208.466,175.035 255.799,138.369 327,132.5C 341.138,134.123 355.304,134.956 369.5,135C 375.058,133.554 380.058,131.054 384.5,127.5C 391.774,119.115 398.441,110.281 404.5,101C 409.434,98.0617 414.767,96.8951 420.5,97.5 Z"/></g>
<g><path style="opacity:1" fill="#3e3e3e" d="M 460.5,122.5 C 472.993,124.458 478.493,131.791 477,144.5C 466.37,167.144 451.203,186.311 431.5,202C 426.214,206.318 420.214,208.318 413.5,208C 404.71,204.927 401.21,198.76 403,189.5C 410.598,179.899 418.931,170.899 428,162.5C 436.33,151.848 443.663,140.514 450,128.5C 452.793,125.027 456.293,123.027 460.5,122.5 Z"/></g>
<g><path style="opacity:1" fill="#ff7f00" d="M 491.5,159.5 C 506.345,159.509 512.845,166.842 511,181.5C 494.374,211.629 470.541,233.962 439.5,248.5C 429.879,246.234 425.379,240.234 426,230.5C 426.667,229.167 427.333,227.833 428,226.5C 440.707,216.306 453.04,205.639 465,194.5C 472.837,185.659 479.504,175.992 485,165.5C 487.063,163.266 489.229,161.266 491.5,159.5 Z"/></g>
<g><path style="opacity:1" fill="#fe7f00" d="M 521.5,204.5 C 530.477,205.631 536.31,210.631 539,219.5C 543.313,234.752 547.313,250.085 551,265.5C 552.866,276.278 548.699,283.444 538.5,287C 509.833,287.667 481.167,287.667 452.5,287C 445.812,285.305 442.478,280.972 442.5,274C 442.615,271.268 443.448,268.768 445,266.5C 452.086,261.371 459.586,256.871 467.5,253C 486.111,240.389 502.111,225.055 515.5,207C 517.723,206.434 519.723,205.6 521.5,204.5 Z"/></g>
<g><path style="opacity:1" fill="#3f3e3e" d="M 333.5,218.5 C 298.817,290.534 264.651,362.868 231,435.5C 226.631,443.537 220.131,449.037 211.5,452C 206.712,452.85 202.045,454.017 197.5,455.5C 194.973,453.395 192.64,451.061 190.5,448.5C 205.924,417.979 220.591,386.979 234.5,355.5C 247.951,326.591 261.451,297.591 275,268.5C 280.803,254.377 288.97,241.877 299.5,231C 309.459,223.179 320.792,219.013 333.5,218.5 Z"/></g>
<g><path style="opacity:1" fill="#000000" d="M 498.5,439.5 C 482.131,439.869 465.798,439.369 449.5,438C 433.133,434.076 421.3,424.576 414,409.5C 388.422,357.014 363.422,304.347 339,251.5C 337.186,250.24 335.353,250.24 333.5,251.5C 299.011,324.143 265.345,397.143 232.5,470.5C 220.334,469.945 209.334,466.112 199.5,459C 198.177,458.184 197.511,457.017 197.5,455.5C 202.045,454.017 206.712,452.85 211.5,452C 220.131,449.037 226.631,443.537 231,435.5C 264.651,362.868 298.817,290.534 333.5,218.5C 360.407,217.384 379.907,229.051 392,253.5C 409.651,290.136 427.317,326.802 445,363.5C 450.712,375.545 459.878,383.712 472.5,388C 488.122,389.253 503.788,389.92 519.5,390C 525.16,391.164 528.16,394.664 528.5,400.5C 527.964,402.942 527.131,405.275 526,407.5C 517.525,418.797 508.359,429.464 498.5,439.5 Z"/></g>
<g><path style="opacity:1" fill="#3e3e3e" d="M 498.5,439.5 C 486.298,453.524 471.298,463.357 453.5,469C 426.653,473.823 406.153,464.657 392,441.5C 376,408.167 360,374.833 344,341.5C 340.819,335.748 336.819,335.081 332,339.5C 314.707,377.418 296.374,414.751 277,451.5C 265.314,465.12 250.481,471.453 232.5,470.5C 265.345,397.143 299.011,324.143 333.5,251.5C 335.353,250.24 337.186,250.24 339,251.5C 363.422,304.347 388.422,357.014 414,409.5C 421.3,424.576 433.133,434.076 449.5,438C 465.798,439.369 482.131,439.869 498.5,439.5 Z"/></g>
<g><path style="opacity:1" fill="#fe7f00" d="M 132.5,299.5 C 160.502,299.333 188.502,299.5 216.5,300C 226.172,303.507 230.005,310.34 228,320.5C 225.293,326.274 220.793,329.774 214.5,331C 193.695,330.939 173.362,331.106 153.5,331.5C 144.835,330.963 136.169,330.463 127.5,330C 117.53,323.024 115.863,314.357 122.5,304C 125.564,301.63 128.897,300.13 132.5,299.5 Z"/></g>
<g><path style="opacity:1" fill="#ff7f00" d="M 234.5,355.5 C 220.591,386.979 205.924,417.979 190.5,448.5C 187.984,448.245 185.65,447.411 183.5,446C 155.643,421.971 136.31,392.304 125.5,357C 127.156,351.336 130.822,347.669 136.5,346C 165.833,345.333 195.167,345.333 224.5,346C 229.715,347.386 233.049,350.552 234.5,355.5 Z"/></g>
<g><path style="opacity:1" fill="#000000" d="M 148.5,482.5 C 152.115,482.206 155.282,483.206 158,485.5C 158.667,510.833 158.667,536.167 158,561.5C 154.281,564.902 150.114,565.402 145.5,563C 144.874,562.25 144.374,561.416 144,560.5C 143.333,535.833 143.333,511.167 144,486.5C 145.397,484.93 146.897,483.596 148.5,482.5 Z"/></g>
<g><path style="opacity:1" fill="#000000" d="M 560.5,482.5 C 564.21,482.225 567.043,483.558 569,486.5C 569.667,511.5 569.667,536.5 569,561.5C 564.333,566.833 559.667,566.833 555,561.5C 554.333,536.5 554.333,511.5 555,486.5C 556.5,484.531 558.333,483.198 560.5,482.5 Z"/></g>
<g><path style="opacity:1" fill="#000000" d="M 590.5,482.5 C 594.426,482.047 597.592,483.38 600,486.5C 600.667,511.167 600.667,535.833 600,560.5C 594.648,567.176 589.648,566.843 585,559.5C 584.333,535.833 584.333,512.167 585,488.5C 585.727,485.309 587.561,483.309 590.5,482.5 Z"/></g>
<g><path style="opacity:1" fill="#000000" d="M 98.5,488.5 C 101.044,488.104 103.211,488.771 105,490.5C 114.919,512.59 124.252,534.923 133,557.5C 133.292,562.222 130.958,564.888 126,565.5C 120.337,564.001 116.837,560.335 115.5,554.5C 105.851,553.335 96.1839,553.168 86.5,554C 84.8726,556.754 83.3726,559.588 82,562.5C 77.251,566.722 72.9177,566.389 69,561.5C 68.3333,559.5 68.3333,557.5 69,555.5C 78.1681,532.813 88.0014,510.479 98.5,488.5 Z"/></g>
<g><path style="opacity:1" fill="#000000" d="M 306.5,490.5 C 317.172,490.333 327.839,490.5 338.5,491C 359.052,498.378 364.552,511.878 355,531.5C 352.624,534.045 350.124,536.378 347.5,538.5C 350.737,545.228 354.571,551.561 359,557.5C 359.896,560.025 359.396,562.192 357.5,564C 354.678,564.564 352.178,565.064 350,565.5C 348.324,564.939 346.991,563.939 346,562.5C 345.667,562.833 345.333,563.167 345,563.5C 340.624,556.581 336.124,549.748 331.5,543C 327.476,542.503 323.476,542.669 319.5,543.5C 319.793,549.893 319.46,556.227 318.5,562.5C 314.746,565.276 310.746,565.776 306.5,564C 305.107,562.829 304.273,561.329 304,559.5C 303.91,537.167 304.244,514.834 305,492.5C 305.717,491.956 306.217,491.289 306.5,490.5 Z"/></g>
<g><path style="opacity:1" fill="#fefffe" d="M 319.5,505.5 C 325.925,505.13 332.258,505.63 338.5,507C 346.94,514.898 346.273,521.898 336.5,528C 330.843,528.499 325.176,528.666 319.5,528.5C 319.5,520.833 319.5,513.167 319.5,505.5 Z"/></g>
<g><path style="opacity:1" fill="#000000" d="M 392.5,507.5 C 412.792,508.624 422.959,519.29 423,539.5C 422.626,540.416 422.126,541.25 421.5,542C 408.82,542.167 396.154,542.667 383.5,543.5C 385.285,548.985 389.118,551.652 395,551.5C 399.138,550.419 403.305,549.919 407.5,550C 410,551.833 412.5,553.667 415,555.5C 414.805,557.745 413.638,559.578 411.5,561C 394.89,569.528 381.056,566.361 370,551.5C 362.859,534.589 366.859,520.922 382,510.5C 382.333,510.833 382.667,511.167 383,511.5C 385.968,509.489 389.134,508.156 392.5,507.5 Z"/></g>
<g><path style="opacity:1" fill="#000000" d="M 456.5,507.5 C 466.086,507.462 474.086,510.962 480.5,518C 477.833,520.667 475.167,523.333 472.5,526C 467.454,524.079 462.121,523.079 456.5,523C 446.528,526.442 443.028,533.276 446,543.5C 453.217,553.024 461.217,554.024 470,546.5C 473.323,548.824 476.323,551.491 479,554.5C 479.63,556.903 478.797,558.737 476.5,560C 462.145,568.255 448.645,567.088 436,556.5C 428.126,544.93 427.46,532.93 434,520.5C 439.754,512.866 447.254,508.533 456.5,507.5 Z"/></g>
<g><path style="opacity:1" fill="#000000" d="M 512.5,507.5 C 524.22,507.269 532.72,512.269 538,522.5C 539.611,535.764 539.944,549.097 539,562.5C 537.316,564.066 535.316,565.066 533,565.5C 530.102,564.437 527.602,562.77 525.5,560.5C 517.002,566.125 508.002,566.959 498.5,563C 487.668,553.898 487.001,544.231 496.5,534C 505.008,529.573 514.008,528.406 523.5,530.5C 523.236,524.902 520.236,521.902 514.5,521.5C 509.782,522.693 505.448,524.693 501.5,527.5C 498.894,524.579 496.394,522.245 494,520.5C 493.08,517.692 493.913,515.525 496.5,514C 501.566,510.928 506.9,508.762 512.5,507.5 Z"/></g>
<g><path style="opacity:1" fill="#000000" d="M 189.5,508.5 C 197.219,507.386 204.219,509.052 210.5,513.5C 212.569,509.881 215.736,508.214 220,508.5C 223.511,507.749 225.511,509.082 226,512.5C 225.975,531.495 225.641,550.495 225,569.5C 222.101,576.732 216.934,581.565 209.5,584C 196.953,587.88 185.119,586.38 174,579.5C 173.333,578.5 173.333,577.5 174,576.5C 176.714,573.449 179.714,570.782 183,568.5C 193.067,573.496 202.067,572.163 210,564.5C 211.668,556.737 209.835,555.237 204.5,560C 192.148,564.871 181.981,562.038 174,551.5C 165.438,532.009 170.604,517.676 189.5,508.5 Z"/></g>
<g><path style="opacity:1" fill="#000000" d="M 258.5,508.5 C 275.587,506.455 287.087,513.455 293,529.5C 295.619,550.874 286.286,562.874 265,565.5C 244.223,563.051 234.889,551.384 237,530.5C 240.359,519.309 247.526,511.976 258.5,508.5 Z"/></g>
<g><path style="opacity:1" fill="#fefffe" d="M 100.5,521.5 C 103.792,526.587 106.459,532.087 108.5,538C 103.845,538.499 99.1785,538.666 94.5,538.5C 96.1036,532.689 98.1036,527.022 100.5,521.5 Z"/></g>
<g><path style="opacity:1" fill="#fefffe" d="M 394.5,521.5 C 400.608,521.383 404.942,524.05 407.5,529.5C 399.855,530.665 392.188,530.831 384.5,530C 386.482,525.518 389.815,522.685 394.5,521.5 Z"/></g>
<g><path style="opacity:1" fill="#fefffe" d="M 194.5,522.5 C 209.404,523.349 213.904,530.683 208,544.5C 199.093,550.893 191.759,549.56 186,540.5C 184.3,532.237 187.133,526.237 194.5,522.5 Z"/></g>
<g><path style="opacity:1" fill="#fefffe" d="M 260.5,523.5 C 273.089,522.256 278.923,527.923 278,540.5C 273.205,550.493 266.038,552.827 256.5,547.5C 249.185,538.098 250.519,530.098 260.5,523.5 Z"/></g>
<g><path style="opacity:1" fill="#fefffe" d="M 509.5,542.5 C 513.846,542.334 518.179,542.501 522.5,543C 524.698,544.878 524.864,547.045 523,549.5C 518.175,552.98 513.175,553.313 508,550.5C 505.899,547.312 506.399,544.645 509.5,542.5 Z"/></g>
</svg>
